<svg id="Layer_1" data-name="Layer 1" xmlns="http://www.w3.org/2000/svg" viewBox="0 0 269.49 310"><defs><style>.cls-1{fill:#bd1e53;}</style></defs><title>favicon</title><path class="cls-1" d="M121.71,262.63,80.38,304V222.67l41.33-41.33ZM139.34,310H86.42l41.33-41.33h52.92Zm85.23-94.62h-29.5v-39.5h69Zm-33.77-122h78.69v74H190.8s-4.27-.13-4.27,4.21v88.58H130.25V171.6a4.27,4.27,0,0,0-4.27-4.27H49.5v-74H126a4,4,0,0,0,4.27-4.27V0l56.28.45V89.07A4.05,4.05,0,0,0,190.8,93.34Zm-110.42-46L121.71,6V84.79H80.38ZM47,175.88h68.12l-39.5,39.5H6.27ZM0,140.46,41,99.4v70.4L0,209.55Z"/></svg>