<svg id="Layer_1" data-name="Layer 1" xmlns="http://www.w3.org/2000/svg" viewBox="0 0 200 92.39"><defs><style>.cls-1{fill:#231f20;}.cls-2{fill:#ed1c24;}</style></defs><title>logo</title><path class="cls-1" d="M62.15,5.17,66.6.72V28.44l-1.18,1.18H62.15ZM50.22.74V31.39L45.8,35.82V5.17ZM46.05,36.87l4.71-4.71L55.57,37l-4.71,4.72Zm16.7,5H52l4.46-4.46H67.22ZM73.29,31.28,68.1,36.47H56.38l-5.24-5.24V.08h5.78v28.4a.45.45,0,0,0,.14.33l1.6,1.6a.45.45,0,0,0,.33.14h6.62a.45.45,0,0,0,.33-.14L67.38,29a.47.47,0,0,0,.14-.33V.08h5.77Z"/><path class="cls-1" d="M127.18,5.17,131.62.72V28.44l-1.18,1.18h-3.26ZM115.24.74V31.39l-4.42,4.43V5.17Zm-4.16,36.13,4.71-4.71L120.6,37l-4.72,4.72Zm16.7,5H117l4.47-4.46h10.76Zm10.53-10.57-5.19,5.19H121.41l-5.24-5.24V.08H122v28.4a.49.49,0,0,0,.13.33l1.6,1.6a.47.47,0,0,0,.33.14h6.63a.43.43,0,0,0,.32-.14L132.41,29a.51.51,0,0,0,.13-.33V.08h5.77Z"/><path class="cls-1" d="M184.53,22v7.87a.46.46,0,0,0,.46.46h14.85v6.13H178.45V0h6.08Zm-7-21.31V36.72l-4.46,4.46V5.09Zm17.19,41.19h-21l4.49-4.49h21Z"/><path class="cls-1" d="M28.35,5.18l4-4L24,25.39,22.7,21.14ZM9,.06h6.2l8.41,27a.45.45,0,0,0,.43.32.49.49,0,0,0,.45-.31l9.25-27h6.2V36.48H33.82V18.94a.45.45,0,0,0-.39-.45.46.46,0,0,0-.51.3L26.81,36.48H22L15.92,20a.45.45,0,0,0-.51-.29.46.46,0,0,0-.38.45V36.48H9Zm24,21.63v15l-4.49,4.48V34.67ZM8,.66V36.75L3.57,41.21V5.12Zm1.9,41.21H4.22L8.68,37.4H14.4Zm3.81-2.51,2.1-2.09h0a.46.46,0,0,0,.13-.32V22.76l5.2,14-6.33,4.79Zm6.34,2.51H16l5.9-4.47h4Zm14.7,0H29.07l4.46-4.47h5.71Z"/><path class="cls-1" d="M159.58.08l8.75,36.29h-4.56l-1.43-5.55L164.4,28a.46.46,0,0,0-.05-.59l-3.63-3.69-3.14-13a.48.48,0,0,0-.9,0l-3.13,13-3.73,3.67a.45.45,0,0,0,0,.6l2.07,2.84-1.34,5.55h-4.58L154.67.08ZM156.82,36.4l4.77-4.78,1.29,5L158,41.46Zm-4.25-6.14-1.82-2.5,3.41-3.36h6l3.31,3.36-1.81,2.5Zm2-6.78,2.57-10.71,2.58,10.71Zm-5.21-18,4.11-4.27L145,36.49l-4.4,4.39Zm-4.16,36.48h-4.37l4.62-4.63h4.38Zm6.41-6.15,1.1-4.59h8l-4.59,4.59Zm11.74,6.15h-4.45l4.62-4.63h4.32Z"/><path class="cls-1" d="M106.62,8h-8.5v.45h-.46V36.39H91.58V8.49A.45.45,0,0,0,91.12,8H82.86V0h23.76Zm-16,28.63L86.2,41.12V14l4.46-4.46ZM82.59,9H90l-4.27,4.27H78.2ZM77.52,5.13,81.94.69v7.6l-4.42,4.3Zm15,36.64H86.85l4.46-4.46H97Zm9.21-28.55H98.58V9H106Z"/><path class="cls-1" d="M35.94,50.58H42V87H35.94Zm-.93.6V87.27l-4.46,4.47V55.64Zm1.91,41.21H31.2l4.47-4.46h5.71Z"/><polygon class="cls-1" points="52.4 51.22 48.01 55.58 48.01 91.66 52.4 87.28 52.4 51.22"/><polygon class="cls-1" points="48.65 92.33 64.3 92.33 68.69 87.93 53.05 87.93 48.65 92.33"/><polygon class="cls-1" points="59.92 58.05 59.92 62.43 61.82 62.43 66.19 58.05 59.92 58.05"/><rect class="cls-1" x="62.29" y="60.31" width="6.67" height="1.85" transform="translate(-24.08 64.33) rotate(-45)"/><polygon class="cls-1" points="64.37 79.37 67.16 79.37 68.89 77.64 68.89 60.58 64.37 65.1 64.37 79.37"/><path class="cls-1" d="M69.56,50.49H53.32V87H69.56l5.93-5.92V56.42Zm.25,27.34a.44.44,0,0,1-.13.33l-2,2a.45.45,0,0,1-.33.14H59.46a.46.46,0,0,1-.46-.47V57.59a.45.45,0,0,1,.46-.46h7.89a.44.44,0,0,1,.33.13l2,2a.44.44,0,0,1,.13.33Z"/><polygon class="cls-1" points="176.91 51.22 172.53 55.58 172.53 91.66 176.91 87.28 176.91 51.22"/><polygon class="cls-1" points="173.16 92.33 188.81 92.33 193.21 87.93 177.56 87.93 173.16 92.33"/><polygon class="cls-1" points="184.43 58.05 184.43 62.43 186.33 62.43 190.71 58.05 184.43 58.05"/><rect class="cls-1" x="186.8" y="60.31" width="6.67" height="1.85" transform="translate(12.39 152.37) rotate(-45)"/><polygon class="cls-1" points="188.88 79.37 191.68 79.37 193.4 77.64 193.4 60.58 188.88 65.1 188.88 79.37"/><path class="cls-1" d="M194.08,50.49H177.83V87h16.25L200,81.08V56.42Zm.25,27.34a.45.45,0,0,1-.14.33l-2,2a.43.43,0,0,1-.32.14H184a.46.46,0,0,1-.46-.47V57.59a.45.45,0,0,1,.46-.46h7.9a.42.42,0,0,1,.32.13l2,2a.45.45,0,0,1,.14.33Z"/><path class="cls-1" d="M4.64,92.39H.27l4.62-4.63H9.26Zm6.41-6.15,1.1-4.59h8l-4.58,4.59Zm2.56-11.37h5.94l3.32,3.36-1.82,2.5H12l-1.82-2.5ZM14,74l2.58-10.71L19.16,74M16.27,86.86,21,82.09l1.29,5-4.84,4.83Zm6.51,5.53H18.34L23,87.76h4.31ZM19,50.55l8.75,36.29H23.21l-1.42-5.55,2.05-2.83a.46.46,0,0,0,0-.6l-3.63-3.68L17,61.16a.48.48,0,0,0-.9,0L13,74.18,9.27,77.85a.45.45,0,0,0,0,.6l2.06,2.84L10,86.84H5.37l8.75-36.29ZM8.79,55.9l4.12-4.27L4.39,87,0,91.35Z"/><path class="cls-2" d="M105.51,82.69l-4.46,4.47V78.38l4.46-4.46Zm1.9,5.12H101.7l4.46-4.46h5.72Zm9.21-10.22h-3.19V73.33h7.45ZM113,64.42h8.5v8H113a.43.43,0,0,0-.46.45v9.56h-6.08V72.87a.45.45,0,0,0-.46-.46H97.72v-8H106a.43.43,0,0,0,.46-.46V54.34l6.08,0V64A.43.43,0,0,0,113,64.42Zm-11.92-5L105.51,55v8.5h-4.46ZM97.44,73.33h7.36l-4.27,4.26H93.05ZM92.37,69.5l4.42-4.43v7.6L92.37,77Z"/><path class="cls-1" d="M140.59,87.32l4.71-4.71,4.81,4.81-4.71,4.71Zm16.7,5H146.53L151,87.84h10.77Zm5.82-27.91a.47.47,0,0,0-.33-.14h-2L162,63.12h5.32l-2.72,2.72Zm-6.64-1.35-.89-.89,4.59-4.58.89.89Zm-1.68-1.4h-2.13v-3L154,57.33h5.12Zm-2.13.92h2L156,63.88v.38h-2l-1.33-1.33Zm4.26,1.34,4.34-4.34V62.5l-1.77,1.76h-2.57Zm-11-8.18,5.24-5.24h11.53L168,55.73v6.46h-5.78V58.47a.46.46,0,0,0-.13-.32l-1.6-1.6a.47.47,0,0,0-.33-.14H153.8a.47.47,0,0,0-.33.14l-1.6,1.6a.43.43,0,0,0-.14.32v4.65a.47.47,0,0,0,.14.33l1.6,1.6a.46.46,0,0,0,.33.13h8.79l5.24,5.24V81.73l-5.19,5.19H150.92l-5.24-5.24v-7h5.78v4.25a.43.43,0,0,0,.14.32l1.6,1.6a.45.45,0,0,0,.33.14h6.62a.47.47,0,0,0,.33-.14l1.44-1.45a.45.45,0,0,0,.14-.33V73.37h0v-.2a.47.47,0,0,0-.14-.33l-1.6-1.6a.45.45,0,0,0-.33-.14h-8.79L146,65.87ZM151,72h8.76l1,1-3.5,3.5h-4.91v-2.3a.45.45,0,0,0-.46-.46h-2.63Zm1.35,5.42h4.56v2.63h-3.22l-1.34-1.33Zm5.48-.18L161.12,74v4.72h0v.16L160,80.08h-2.1ZM145,56.69V65.8l-4.69,4.69V61.4Zm-4.44,14.86,4.87-4.87,4.81,4.81L148,73.77h-2.77v0a.49.49,0,0,0-.33.11l-1,1Zm4.17,3.8v6.5l-4.42,4.42V79.78Z"/></svg>