<svg id="Layer_1" data-name="Layer 1" xmlns="http://www.w3.org/2000/svg" viewBox="0 0 149.17 171.6"><defs><style>.cls-1{fill:#f05e65;}</style></defs><title>Artboard 1</title><path class="cls-1" d="M67.37,145.37,44.49,168.25v-45l22.88-22.88Zm9.76,26.23H47.84l22.87-22.88H100Zm47.18-52.38H108V97.35h38.19ZM105.62,51.67h43.55v41H105.62A2.25,2.25,0,0,0,103.25,95v49H72.1V95a2.37,2.37,0,0,0-2.36-2.37H27.4V51.67H69.74A2.22,2.22,0,0,0,72.1,49.3V0l31.15.25V49.3A2.25,2.25,0,0,0,105.62,51.67ZM44.49,26.21,67.37,3.33V46.94H44.49ZM26,97.35H63.7L41.84,119.22H3.47ZM0,77.75,22.67,55V94L0,116Z"/></svg>